<?xml version="1.0" encoding="UTF-8" standalone="no"?>
<!-- Created with Inkscape (http://www.inkscape.org/) -->

<svg
   width="17.679558mm"
   height="42.81768mm"
   viewBox="0 0 17.679558 42.817681"
   version="1.1"
   id="svg5"
   sodipodi:docname="mouse_wheel.svg"
   xml:space="preserve"
   inkscape:version="1.2.2 (1:1.2.2+202212051550+b0a8486541)"
   xmlns:inkscape="http://www.inkscape.org/namespaces/inkscape"
   xmlns:sodipodi="http://sodipodi.sourceforge.net/DTD/sodipodi-0.dtd"
   xmlns="http://www.w3.org/2000/svg"
   xmlns:svg="http://www.w3.org/2000/svg"><sodipodi:namedview
     id="namedview7"
     pagecolor="#ffffff"
     bordercolor="#666666"
     borderopacity="1.0"
     inkscape:showpageshadow="2"
     inkscape:pageopacity="0.0"
     inkscape:pagecheckerboard="0"
     inkscape:deskcolor="#d1d1d1"
     inkscape:document-units="mm"
     showgrid="false"
     inkscape:zoom="2.3786088"
     inkscape:cx="188.34539"
     inkscape:cy="125.91394"
     inkscape:window-width="1848"
     inkscape:window-height="1016"
     inkscape:window-x="72"
     inkscape:window-y="27"
     inkscape:window-maximized="1"
     inkscape:current-layer="layer1" /><defs
     id="defs2" /><g
     inkscape:label="Calque 1"
     inkscape:groupmode="layer"
     id="layer1"
     transform="translate(-3.6122496,-0.66172141)"><path
       id="path1751"
       style="fill:#000000;stroke-width:1"
       d="M 12.489744 0.66172141 C 11.816121 0.66172141 8.9990009 3.3403552 8.9990009 3.9808987 C 8.9990009 4.2215854 9.1479268 4.5680407 9.3302468 4.7503607 C 9.8512678 5.2713813 10.203285 5.1520507 11.208685 4.1147406 C 11.724095 3.5829736 12.271958 3.1478746 12.425665 3.1478746 C 12.579372 3.1478746 13.17983 3.6113134 13.759951 4.1777859 C 14.621926 5.0194822 14.901433 5.1530515 15.290607 4.9079739 C 15.552525 4.7430335 15.80673 4.4055174 15.85543 4.1581488 C 15.977532 3.537863 13.208934 0.66172141 12.489744 0.66172141 z M 12.45202 8.6379787 C 9.3404498 8.6379787 6.2288877 10.255084 4.5791156 13.489362 L 3.6122496 15.384854 L 3.6122496 22.070751 L 3.6122496 28.756131 L 4.5791156 30.651622 C 5.6705805 32.791372 7.4546182 34.371783 9.551422 35.056521 C 11.387145 35.656002 14.632138 35.456604 16.317934 34.640526 C 18.107361 33.774279 19.669143 32.161795 20.560569 30.260432 C 21.288348 28.708174 21.291791 28.666599 21.291791 22.042845 L 21.291791 15.384854 L 20.324925 13.489362 C 18.675152 10.255084 15.563591 8.6379787 12.45202 8.6379787 z M 12.45202 10.703486 C 13.628278 10.703486 14.80453 10.950936 15.774298 11.446593 C 17.27828 12.215289 18.72232 14.047357 19.210781 15.806017 C 19.577343 17.125794 19.577343 27.015188 19.210781 28.334968 C 18.725314 30.082851 17.277459 31.926158 15.794452 32.684056 C 14.880682 33.151045 13.893538 33.400008 12.755878 33.450418 C 9.7255688 33.584678 7.6177818 32.343741 6.26015 29.626878 L 5.4080056 27.921556 L 5.4095559 22.371507 C 5.4104032 19.319123 5.5380814 16.364722 5.6932595 15.806017 C 6.181719 14.047357 7.6257605 12.215289 9.1297423 11.446593 C 10.099511 10.950936 11.275762 10.703486 12.45202 10.703486 z M 11.62313 14.335822 L 11.540965 16.401329 C 11.473813 18.084129 11.544873 18.530381 11.924404 18.807901 C 12.254871 19.049546 12.543215 19.066876 12.916074 18.867329 C 13.374729 18.621862 13.431157 18.314974 13.361009 16.460757 L 13.28091 14.335822 L 12.45202 14.335822 L 11.62313 14.335822 z M 9.9674172 39.12449 C 9.8460537 39.117085 9.7350507 39.156424 9.6134337 39.23301 C 8.7547096 39.77378 8.9386892 40.409681 10.400983 41.955842 C 11.302117 42.908658 12.0702 43.479263 12.45202 43.479263 C 13.207258 43.479263 15.982471 40.628215 15.85543 39.982836 C 15.806734 39.735468 15.552525 39.397949 15.290607 39.23301 C 14.901433 38.987931 14.621926 39.121503 13.759951 39.963198 C 13.17983 40.529673 12.591142 40.99311 12.45202 40.99311 C 12.312898 40.99311 11.724209 40.529673 11.14409 39.963198 C 10.551481 39.384533 10.234417 39.140781 9.9674172 39.12449 z " /></g></svg>
