<?xml version="1.0" encoding="UTF-8" standalone="no"?>
<!-- Svg Vector Icons : http://www.onlinewebfonts.com/icon -->

<svg
   version="1.1"
   x="0px"
   y="0px"
   viewBox="0 0 28.000004 27.999996"
   width="28.000004"
   height="27.999996"
   xmlns="http://www.w3.org/2000/svg"
>
<path
       d="m 798.8,4991.7 c -123.5,-40.5 -188.3,-91.1 -247,-190.3 -52.6,-91.1 -52.6,-91.1 -16.2,-155.9 524.3,-911 1743,-2894.8 2494,-4056.8 L 3321.1,139.3 3100.5,-160.3 C 2248.3,-1318.2 1468.9,-2417.4 379.8,-4002.5 l -153.8,-222.7 50.6,-107.3 c 93.1,-194.3 295.6,-273.3 591.1,-228.8 218.6,30.4 289.5,70.9 489.9,281.4 289.5,305.7 639.7,827.9 1445.4,2151.9 769.3,1265.2 963.6,1579 979.8,1579 8.1,0 117.4,-151.8 245,-338.1 1066.7,-1572.9 1771.2,-2485.8 2408.9,-3125.5 479.8,-481.8 659.9,-595.2 1155.9,-730.8 145.8,-40.5 216.6,-46.6 504.1,-46.6 311.8,2 344.1,4.1 496,56.7 230.8,81 425.1,202.4 587.1,368.4 255.1,259.1 372.5,520.3 374.5,823.9 0,220.6 -48.6,360.3 -172.1,498 -174.1,194.3 -443.3,295.6 -789.5,295.6 -388.7,0 -572.9,-70.9 -817.9,-313.8 -99.2,-99.2 -202.4,-178.2 -261.1,-204.5 -311.8,-139.6 -722.7,62.8 -1313.8,645.8 -643.7,635.6 -1170.1,1328 -1775.4,2338.1 L 4185.6,117 4382,406.5 c 611.3,896.8 1143.7,1534.5 1751,2097.3 664,615.4 1141.7,882.6 1455.5,811.8 133.6,-30.4 198.4,-76.9 384.6,-281.4 186.2,-204.5 307.7,-275.3 562.8,-332 184.2,-40.5 467.6,-42.5 623.5,-2 382.6,101.2 595.2,350.2 613.4,718.7 28.3,587.1 -425.1,1135.7 -1079,1307.7 -190.3,50.6 -601.2,50.6 -836,0 -504.1,-107.3 -777.4,-267.2 -1330,-777.4 C 5936.6,3400.6 4962.9,2275 4052,1086.7 3926.5,920.7 3815.1,787.1 3807,787.1 c -18.2,0 -121.5,190.3 -771.3,1437.3 -1119.5,2147.8 -1441.3,2645.8 -1769.3,2743 -147.7,44.6 -370.4,56.7 -467.6,24.3 z"
/>
</svg>
