<?xml version="1.0" encoding="UTF-8" standalone="no"?>
<!-- Created with Inkscape (http://www.inkscape.org/) -->

<svg
   version="1.1"
   width="67.199997"
   height="161.60001"
   viewBox="0 0 67.199997 161.60001"
   xmlns="http://www.w3.org/2000/svg">
    <path
       d="m 26.239999,156.16001 c -2.992,-2.992 -5.44,-6.2546 -5.44,-7.25022 0,-3.64559 5.01628,-3.6644 8.881409,-0.0333 l 3.91859,3.68132 3.918591,-3.68132 c 3.865129,-3.6311 8.881409,-3.61229 8.881409,0.0333 0,2.41427 -10.364846,12.69022 -12.8,12.69022 -1.055999,0 -4.367999,-2.448 -7.359999,-5.44 z m -6.24,-27.21257 C 13.279261,125.96886 7.2444806,119.92785 3.3356106,112.26583 0.37704427,106.46656 0,102.90801 0,80.78429 0,53.865402 0.85441067,50.247403 9.382658,41.05347 c 13.193752,-14.223612 35.240929,-14.223612 48.43468,0 8.528248,9.193933 9.382659,12.811932 9.382659,39.73082 0,21.42612 -0.431442,25.78023 -3.059793,30.87946 -4.163303,8.07716 -12.800283,16.06063 -19.433387,17.96298 -7.586398,2.17575 -18.971073,1.86274 -24.706818,-0.67929 z m 25.900973,-8.39749 c 3.071522,-1.45754 7.46857,-5.49696 9.771218,-8.97649 4.056804,-6.13025 4.186631,-7.08452 4.186631,-30.773455 0,-23.688933 -0.129824,-24.643208 -4.186631,-30.773455 C 45.492996,34.644749 21.865369,34.405437 11.821724,49.582413 8.300334,54.903592 7.8329593,57.688564 6.9220891,78.778131 l -1.0069199,23.313429 4.3686228,7.45449 c 2.402742,4.09997 6.65183,8.84668 9.442415,10.54825 6.336645,3.86377 18.544823,4.07629 26.174765,0.45565 z M 30.399999,60.000004 c 0,-7.733334 0.387878,-8.800001 3.199999,-8.800001 2.812122,0 3.2,1.066667 3.2,8.800001 0,7.733333 -0.387878,8.8 -3.2,8.8 -2.812121,0 -3.199999,-1.066667 -3.199999,-8.8 z m -9.6,-47.034256 C 20.799999,9.8761006 30.714128,0 33.815672,0 c 2.275674,0 12.584326,10.395395 12.584326,12.690216 0,3.645595 -5.01628,3.664406 -8.881409,0.0333 L 33.599998,9.0421956 29.896877,12.521098 c -4.598467,4.320036 -9.096878,4.539916 -9.096878,0.44465 z"
       />
</svg>
