<?xml version="1.0" encoding="UTF-8" standalone="no"?>
<!-- Created with Inkscape (http://www.inkscape.org/) -->

<svg
  width="150"
  height="45"
  viewBox="0 0 39.6875 11.906251"
  version="1.1"
  xmlns="http://www.w3.org/2000/svg">
  <path d="M 0,10.169925 V 8.4336 h 0.32531554 0.32530324 v 1.736325 1.736325 H 0.32531554 0 Z m 39.036881,0 V 8.4336 h 0.325315 0.325304 v 1.736325 1.736325 H 39.362196 39.036881 Z M 2.2771596,10.045903 V 9.6738281 H 2.927766 3.5783848 v 0.3720749 0.372066 H 2.927766 2.2771596 Z m 2.6024504,0 V 9.6738281 h 0.6506188 0.6506188 v 0.3720749 0.372066 H 5.5302288 4.87961 Z m 2.6024628,0 V 9.6738281 h 0.6506189 0.6506064 v 0.3720749 0.372066 H 8.1326917 7.4820728 Z m 2.6024622,0 V 9.6738281 h 0.650607 0.650619 v 0.3720749 0.372066 h -0.650619 -0.650607 z m 2.602452,0 V 9.6738281 h 0.650618 0.650618 v 0.3720749 0.372066 h -0.650618 -0.650618 z m 2.602462,0 V 9.6738281 h 0.650619 0.650606 v 0.3720749 0.372066 h -0.650606 -0.650619 z m 2.602463,0 V 9.6738281 h 0.650606 0.650619 v 0.3720749 0.372066 h -0.650619 -0.650606 z m 2.602451,0 V 9.6738281 h 0.650618 0.650618 v 0.3720749 0.372066 h -0.650618 -0.650618 z m 2.602463,0 V 9.6738281 h 0.650618 0.650607 v 0.3720749 0.372066 h -0.650607 -0.650618 z m 2.602462,0 V 9.6738281 h 0.650607 0.650618 v 0.3720749 0.372066 h -0.650618 -0.650607 z m 2.602451,0 V 9.6738281 h 0.650618 0.650619 v 0.3720749 0.372066 h -0.650619 -0.650618 z m 2.602462,0 V 9.6738281 h 0.65062 0.650606 v 0.3720749 0.372066 h -0.650606 -0.65062 z m 2.602463,0 V 9.6738281 h 0.650607 0.650619 v 0.3720749 0.372066 h -0.650619 -0.650607 z m 2.602451,0 V 9.6738281 h 0.650619 0.650618 v 0.3720749 0.372066 H 36.759734 36.109115 Z M 0,5.953125 V 4.2168 H 0.32531554 0.65061878 V 5.953125 7.6894594 H 0.32531554 0 Z m 39.036881,0 V 4.2168 H 39.362196 39.6875 V 5.953125 7.6894594 H 39.362196 39.036881 Z M 0,1.7363344 V 0 h 0.32531554 0.32530324 v 1.7363344 1.736325 H 0.32531554 0 Z m 39.036881,0 V 0 h 0.325315 0.325304 v 1.7363344 1.736325 H 39.362196 39.036881 Z M 2.2771596,1.6123125 V 1.2402375 H 2.927766 3.5783848 v 0.372075 0.3720657 H 2.927766 2.2771596 Z m 2.6024504,0 v -0.372075 h 0.6506188 0.6506188 v 0.372075 0.3720657 H 5.5302288 4.87961 Z m 2.6024628,0 v -0.372075 h 0.6506189 0.6506064 v 0.372075 0.3720657 H 8.1326917 7.4820728 Z m 2.6024622,0 v -0.372075 h 0.650607 0.650619 v 0.372075 0.3720657 h -0.650619 -0.650607 z m 2.602452,0 v -0.372075 h 0.650618 0.650618 v 0.372075 0.3720657 h -0.650618 -0.650618 z m 2.602462,0 v -0.372075 h 0.650619 0.650606 v 0.372075 0.3720657 h -0.650606 -0.650619 z m 2.602463,0 v -0.372075 h 0.650606 0.650619 v 0.372075 0.3720657 h -0.650619 -0.650606 z m 2.602451,0 v -0.372075 h 0.650618 0.650618 v 0.372075 0.3720657 h -0.650618 -0.650618 z m 2.602463,0 v -0.372075 h 0.650618 0.650607 v 0.372075 0.3720657 h -0.650607 -0.650618 z m 2.602462,0 v -0.372075 h 0.650607 0.650618 v 0.372075 0.3720657 h -0.650618 -0.650607 z m 2.602451,0 v -0.372075 h 0.650618 0.650619 v 0.372075 0.3720657 h -0.650619 -0.650618 z m 2.602462,0 v -0.372075 h 0.65062 0.650606 v 0.372075 0.3720657 h -0.650606 -0.65062 z m 2.602463,0 v -0.372075 h 0.650607 0.650619 v 0.372075 0.3720657 h -0.650619 -0.650607 z m 2.602451,0 v -0.372075 h 0.650619 0.650618 v 0.372075 0.3720657 h -0.650618 -0.650619 z" />
</svg>
